<svg xmlns="http://www.w3.org/2000/svg" xmlns:xlink="http://www.w3.org/1999/xlink" viewBox="0,0,256,256" width="100px" height="100px"><g fill="none" fill-rule="nonzero" stroke="none" stroke-width="1" stroke-linecap="butt" stroke-linejoin="miter" stroke-miterlimit="10" stroke-dasharray="" stroke-dashoffset="0" font-family="none" font-weight="none" font-size="none" text-anchor="none" style="mix-blend-mode: normal"><g transform="scale(5.33333,5.33333)"><path d="M17,43h14c5.523,0 10,-4.477 10,-10v-2h-34v2c0,5.523 4.477,10 10,10z" fill="#fbfbfb"></path><path d="M32,40h-16c-4.418,0 -8,-3.582 -8,-8v-16c0,-4.418 3.582,-8 8,-8h16c4.418,0 8,3.582 8,8v16c0,4.418 -3.582,8 -8,8z" fill="#ffffff"></path><path d="M32,41h-16c-4.962,0 -9,-4.038 -9,-9v-16c0,-4.962 4.038,-9 9,-9h16c4.962,0 9,4.038 9,9v16c0,4.962 -4.038,9 -9,9zM16,9c-3.86,0 -7,3.14 -7,7v16c0,3.86 3.14,7 7,7h16c3.86,0 7,-3.14 7,-7v-16c0,-3.86 -3.14,-7 -7,-7z" fill="#fbfbfb"></path><path d="M24,15c-4.962,0 -9,4.038 -9,9c0,4.962 4.038,9 9,9c4.962,0 9,-4.038 9,-9c0,-4.962 -4.038,-9 -9,-9zM24,31c-3.86,0 -7,-3.14 -7,-7c0,-3.86 3.14,-7 7,-7c3.86,0 7,3.14 7,7c0,3.86 -3.14,7 -7,7z" fill="#fbfbfb"></path><circle cx="33.5" cy="14.5" r="1.5" fill="#fbfbfb"></circle></g></g></svg>